<svg xmlns="http://www.w3.org/2000/svg" width="122" height="42" viewBox="0 0 122 42" fill="none" role="img" aria-label="Blazor">
  <defs>
    <linearGradient id="badge-border-blazor" x1="0" y1="0" x2="122" y2="42" gradientUnits="userSpaceOnUse">
      <stop offset="0%" stop-color="#8B5CF6" stop-opacity=".72"/>
      <stop offset="50%" stop-color="#E879F9" stop-opacity=".48"/>
      <stop offset="100%" stop-color="#A78BFA" stop-opacity=".72"/>
    </linearGradient>
    <linearGradient id="badge-bg-blazor" x1="0" y1="0" x2="122" y2="42" gradientUnits="userSpaceOnUse">
      <stop offset="0%" stop-color="#111827"/>
      <stop offset="55%" stop-color="#121826"/>
      <stop offset="100%" stop-color="#0B1020"/>
    </linearGradient>
    <linearGradient id="canvaIconGrad" x1="2" y1="3" x2="22" y2="21" gradientUnits="userSpaceOnUse">
      <stop offset="0%" stop-color="#00C4CC"/>
      <stop offset="55%" stop-color="#7C3AED"/>
      <stop offset="100%" stop-color="#38BDF8"/>
    </linearGradient>
    <filter id="soft-glow-blazor" x="-12%" y="-35%" width="124%" height="170%">
      <feGaussianBlur stdDeviation="1.8" result="blur"/>
      <feMerge>
        <feMergeNode in="blur"/>
        <feMergeNode in="SourceGraphic"/>
      </feMerge>
    </filter>
    <style>
      .skill-label-blazor {
        font: 700 14px 'Segoe UI', Inter, Arial, sans-serif;
        fill: #CBD5E1;
        letter-spacing: .05px;
      }
    </style>
  </defs>

  <rect x="2.5" y="3" width="117" height="36" rx="18" fill="url(#badge-bg-blazor)" stroke="url(#badge-border-blazor)" stroke-width="1.25" filter="url(#soft-glow-blazor)"/>
  <g transform="translate(12 9)">
    
<path d="M12 3.2c5 3.2 7.1 7.2 5.9 11.2-1.2 4.1-5 6.4-9.2 5.4-3.4-.8-5.8-3.8-5.8-7.2 0-4.2 3.2-7.3 7.8-7.3h1.7c-2.3 1.2-3.6 3.4-3.6 5.4 0 2.2 1.5 3.7 3.5 3.7 1.8 0 3.1-1.3 3.1-3.2 0-2.5-1.3-4.7-3.4-8z" fill="#6F3CC3"/>
<text x="11.5" y="15" text-anchor="middle" font-family="Segoe UI, Arial, sans-serif" font-weight="800" font-size="9.5" fill="#FFFFFF">@</text>
  </g>
  <text class="skill-label-blazor" x="47" y="26">Blazor</text>
</svg>
