<svg xmlns="http://www.w3.org/2000/svg" width="95" height="34" viewBox="0 0 95 34" role="img" aria-label="CSS3">
  <rect x="0.5" y="0.5" width="94" height="33" rx="12" fill="#0f1520" stroke="#58a6ff" stroke-opacity="0.28"/>
  <rect x="6" y="6" width="22" height="22" rx="7" fill="#58a6ff" fill-opacity="0.16" stroke="#58a6ff" stroke-opacity="0.55"/>
  <g transform="translate(10.750,10.000) scale(0.02734)" fill="#58a6ff"><path d="M0 32l34.9 395.8L192 480l157.1-52.2L384 32H0zm313.1 80l-4.8 47.3L193 208.6l-.3.1h111.5l-12.8 146.6-98.2 28.7-98.8-29.2-6.4-73.9h48.9l3.2 38.3 52.6 13.3 54.7-15.4 3.7-61.6-166.3-.5v-.1l-.2.1-3.6-46.3L193.1 162l6.5-2.7H76.7L70.9 112h242.2z" /></g>
  <text x="39" y="21.2" fill="#E6EDF3" font-family="Inter, Segoe UI, Arial, sans-serif" font-size="13" font-weight="700">CSS3</text>
</svg>