<svg xmlns="http://www.w3.org/2000/svg" width="122" height="42" viewBox="0 0 122 42" fill="none" role="img" aria-label="Docker">
  <defs>
    <linearGradient id="badge-border-docker" x1="0" y1="0" x2="122" y2="42" gradientUnits="userSpaceOnUse">
      <stop offset="0%" stop-color="#2496ED" stop-opacity=".72"/>
      <stop offset="50%" stop-color="#E879F9" stop-opacity=".48"/>
      <stop offset="100%" stop-color="#60A5FA" stop-opacity=".72"/>
    </linearGradient>
    <linearGradient id="badge-bg-docker" x1="0" y1="0" x2="122" y2="42" gradientUnits="userSpaceOnUse">
      <stop offset="0%" stop-color="#111827"/>
      <stop offset="55%" stop-color="#121826"/>
      <stop offset="100%" stop-color="#0B1020"/>
    </linearGradient>
    <linearGradient id="canvaIconGrad" x1="2" y1="3" x2="22" y2="21" gradientUnits="userSpaceOnUse">
      <stop offset="0%" stop-color="#00C4CC"/>
      <stop offset="55%" stop-color="#7C3AED"/>
      <stop offset="100%" stop-color="#38BDF8"/>
    </linearGradient>
    <filter id="soft-glow-docker" x="-12%" y="-35%" width="124%" height="170%">
      <feGaussianBlur stdDeviation="1.8" result="blur"/>
      <feMerge>
        <feMergeNode in="blur"/>
        <feMergeNode in="SourceGraphic"/>
      </feMerge>
    </filter>
    <style>
      .skill-label-docker {
        font: 700 14px 'Segoe UI', Inter, Arial, sans-serif;
        fill: #CBD5E1;
        letter-spacing: .05px;
      }
    </style>
  </defs>

  <rect x="2.5" y="3" width="117" height="36" rx="18" fill="url(#badge-bg-docker)" stroke="url(#badge-border-docker)" stroke-width="1.25" filter="url(#soft-glow-docker)"/>
  <g transform="translate(12 9)">
    
<rect x="6" y="8" width="3" height="3" fill="#2496ED"/>
<rect x="10" y="8" width="3" height="3" fill="#2496ED"/>
<rect x="14" y="8" width="3" height="3" fill="#2496ED"/>
<rect x="10" y="4" width="3" height="3" fill="#2496ED"/>
<rect x="14" y="4" width="3" height="3" fill="#2496ED"/>
<path d="M3 13.1c1.5.2 2.8.1 4-.4h12.6c-.7 5-4.6 7.3-9.9 7.3-3.4 0-6-1.4-7.1-4.2-.4-.9-.2-1.8.4-2.7z" fill="#2496ED"/>
<path d="M19.8 11.4c1-.6 1.8-.6 2.2-.2-.6.8-1.4 1.2-2.5 1.2z" fill="#2496ED"/>
  </g>
  <text class="skill-label-docker" x="47" y="26">Docker</text>
</svg>
