<svg xmlns="http://www.w3.org/2000/svg" width="82" height="34" viewBox="0 0 82 34" role="img" aria-label="Git">
  <rect x="0.5" y="0.5" width="81" height="33" rx="12" fill="#0f1520" stroke="#f97316" stroke-opacity="0.28"/>
  <rect x="6" y="6" width="22" height="22" rx="7" fill="#f97316" fill-opacity="0.16" stroke="#f97316" stroke-opacity="0.55"/>
  <g transform="translate(9.875,10.000) scale(0.02734)" fill="#f97316"><path d="M439.55 236.05L244 40.45a28.87 28.87 0 0 0-40.81 0l-40.66 40.63 51.52 51.52c27.06-9.14 52.68 16.77 43.39 43.68l49.66 49.66c34.23-11.8 61.18 31 35.47 56.69-26.49 26.49-70.21-2.87-56-37.34L240.22 199v121.85c25.3 12.54 22.26 41.85 9.08 55a34.34 34.34 0 0 1-48.55 0c-17.57-17.6-11.07-46.91 11.25-56v-123c-20.8-8.51-24.6-30.74-18.64-45L142.57 101 8.45 235.14a28.86 28.86 0 0 0 0 40.81l195.61 195.6a28.86 28.86 0 0 0 40.8 0l194.69-194.69a28.86 28.86 0 0 0 0-40.81z" /></g>
  <text x="39" y="21.2" fill="#E6EDF3" font-family="Inter, Segoe UI, Arial, sans-serif" font-size="13" font-weight="700">Git</text>
</svg>