<svg xmlns="http://www.w3.org/2000/svg" width="118" height="42" viewBox="0 0 118 42" fill="none" role="img" aria-label="Jira">
  <defs>
    <linearGradient id="badge-border-jira" x1="0" y1="0" x2="118" y2="42" gradientUnits="userSpaceOnUse">
      <stop offset="0%" stop-color="#2684FF" stop-opacity=".72"/>
      <stop offset="50%" stop-color="#E879F9" stop-opacity=".48"/>
      <stop offset="100%" stop-color="#A78BFA" stop-opacity=".72"/>
    </linearGradient>
    <linearGradient id="badge-bg-jira" x1="0" y1="0" x2="118" y2="42" gradientUnits="userSpaceOnUse">
      <stop offset="0%" stop-color="#111827"/>
      <stop offset="55%" stop-color="#121826"/>
      <stop offset="100%" stop-color="#0B1020"/>
    </linearGradient>
    <linearGradient id="canvaIconGrad" x1="2" y1="3" x2="22" y2="21" gradientUnits="userSpaceOnUse">
      <stop offset="0%" stop-color="#00C4CC"/>
      <stop offset="55%" stop-color="#7C3AED"/>
      <stop offset="100%" stop-color="#38BDF8"/>
    </linearGradient>
    <filter id="soft-glow-jira" x="-12%" y="-35%" width="124%" height="170%">
      <feGaussianBlur stdDeviation="1.8" result="blur"/>
      <feMerge>
        <feMergeNode in="blur"/>
        <feMergeNode in="SourceGraphic"/>
      </feMerge>
    </filter>
    <style>
      .skill-label-jira {
        font: 700 14px 'Segoe UI', Inter, Arial, sans-serif;
        fill: #CBD5E1;
        letter-spacing: .05px;
      }
    </style>
  </defs>

  <rect x="2.5" y="3" width="113" height="36" rx="18" fill="url(#badge-bg-jira)" stroke="url(#badge-border-jira)" stroke-width="1.25" filter="url(#soft-glow-jira)"/>
  <g transform="translate(12 9)">
    
<path d="M12.2 3 5 10.2c-.8.8-.8 2.1 0 2.9l7.2 7.2 3.7-3.7-5.7-5.7 5.7-5.7z" fill="#2684FF"/>
<path d="M12.2 3c2.5 2.5 2.5 6.6 0 9.1l-2 2-3.7-3.7z" fill="#0052CC"/>
<path d="M12.2 21c-2.5-2.5-2.5-6.6 0-9.1l2-2 3.7 3.7z" fill="#2684FF"/>
  </g>
  <text class="skill-label-jira" x="47" y="26">Jira</text>
</svg>
