<svg xmlns="http://www.w3.org/2000/svg" width="122" height="42" viewBox="0 0 122 42" fill="none" role="img" aria-label="Python">
  <defs>
    <linearGradient id="badge-border-python" x1="0" y1="0" x2="122" y2="42" gradientUnits="userSpaceOnUse">
      <stop offset="0%" stop-color="#60A5FA" stop-opacity=".72"/>
      <stop offset="50%" stop-color="#E879F9" stop-opacity=".48"/>
      <stop offset="100%" stop-color="#FFD43B" stop-opacity=".72"/>
    </linearGradient>
    <linearGradient id="badge-bg-python" x1="0" y1="0" x2="122" y2="42" gradientUnits="userSpaceOnUse">
      <stop offset="0%" stop-color="#111827"/>
      <stop offset="55%" stop-color="#121826"/>
      <stop offset="100%" stop-color="#0B1020"/>
    </linearGradient>
    <linearGradient id="canvaIconGrad" x1="2" y1="3" x2="22" y2="21" gradientUnits="userSpaceOnUse">
      <stop offset="0%" stop-color="#00C4CC"/>
      <stop offset="55%" stop-color="#7C3AED"/>
      <stop offset="100%" stop-color="#38BDF8"/>
    </linearGradient>
    <filter id="soft-glow-python" x="-12%" y="-35%" width="124%" height="170%">
      <feGaussianBlur stdDeviation="1.8" result="blur"/>
      <feMerge>
        <feMergeNode in="blur"/>
        <feMergeNode in="SourceGraphic"/>
      </feMerge>
    </filter>
    <style>
      .skill-label-python {
        font: 700 14px 'Segoe UI', Inter, Arial, sans-serif;
        fill: #CBD5E1;
        letter-spacing: .05px;
      }
    </style>
  </defs>

  <rect x="2.5" y="3" width="117" height="36" rx="18" fill="url(#badge-bg-python)" stroke="url(#badge-border-python)" stroke-width="1.25" filter="url(#soft-glow-python)"/>
  <g transform="translate(12 9)">
    
<path d="M12.2 2.2c-4.1 0-5.1 1.4-5.1 3.6v2.1h5.7v1.2H5.3C3.2 9.1 2 10.5 2 12.6c0 2.3 1.3 3.8 3.3 3.8h2v-2.7c0-2.1 1.8-4 4-4h5.4c1.6 0 2.9-1.3 2.9-2.9v-1c0-1.6-1.4-2.9-3.1-3.2-1.1-.2-2.4-.4-4.3-.4z" fill="#3776AB"/>
<circle cx="9.2" cy="5.2" r="1" fill="#fff"/>
<path d="M11.8 21.8c4.1 0 5.1-1.4 5.1-3.6v-2.1h-5.7v-1.2h7.5c2.1 0 3.3-1.4 3.3-3.5 0-2.3-1.3-3.8-3.3-3.8h-2v2.7c0 2.1-1.8 4-4 4H7.3c-1.6 0-2.9 1.3-2.9 2.9v1c0 1.6 1.4 2.9 3.1 3.2 1.1.2 2.4.4 4.3.4z" fill="#FFD43B"/>
<circle cx="14.8" cy="18.8" r="1" fill="#111827"/>
  </g>
  <text class="skill-label-python" x="47" y="26">Python</text>
</svg>
