<svg xmlns="http://www.w3.org/2000/svg" width="130" height="42" viewBox="0 0 130 42" fill="none" role="img" aria-label="PyTorch">
  <defs>
    <linearGradient id="badge-border-pytorch" x1="0" y1="0" x2="130" y2="42" gradientUnits="userSpaceOnUse">
      <stop offset="0%" stop-color="#EE4C2C" stop-opacity=".72"/>
      <stop offset="50%" stop-color="#E879F9" stop-opacity=".48"/>
      <stop offset="100%" stop-color="#E879F9" stop-opacity=".72"/>
    </linearGradient>
    <linearGradient id="badge-bg-pytorch" x1="0" y1="0" x2="130" y2="42" gradientUnits="userSpaceOnUse">
      <stop offset="0%" stop-color="#111827"/>
      <stop offset="55%" stop-color="#121826"/>
      <stop offset="100%" stop-color="#0B1020"/>
    </linearGradient>
    <linearGradient id="canvaIconGrad" x1="2" y1="3" x2="22" y2="21" gradientUnits="userSpaceOnUse">
      <stop offset="0%" stop-color="#00C4CC"/>
      <stop offset="55%" stop-color="#7C3AED"/>
      <stop offset="100%" stop-color="#38BDF8"/>
    </linearGradient>
    <filter id="soft-glow-pytorch" x="-12%" y="-35%" width="124%" height="170%">
      <feGaussianBlur stdDeviation="1.8" result="blur"/>
      <feMerge>
        <feMergeNode in="blur"/>
        <feMergeNode in="SourceGraphic"/>
      </feMerge>
    </filter>
    <style>
      .skill-label-pytorch {
        font: 700 14px 'Segoe UI', Inter, Arial, sans-serif;
        fill: #CBD5E1;
        letter-spacing: .05px;
      }
    </style>
  </defs>

  <rect x="2.5" y="3" width="125" height="36" rx="18" fill="url(#badge-bg-pytorch)" stroke="url(#badge-border-pytorch)" stroke-width="1.25" filter="url(#soft-glow-pytorch)"/>
  <g transform="translate(12 9)">
    
<path d="M13.7 3.2c-1.7 2.2-4.2 4.5-6.2 6.6-2.7 2.8-2.2 7.1.7 9.5 3 2.4 7.5 2 9.9-.9 2.1-2.5 2.1-6.2-.2-8.7l-2.2 2.2c1.1 1.5 1.1 3.5-.1 4.9-1.4 1.7-4 1.9-5.7.5-1.7-1.4-2-3.9-.4-5.6 2.1-2.3 4.9-5 6.7-7.3z" fill="#EE4C2C"/>
<circle cx="17.1" cy="7.1" r="1.5" fill="#EE4C2C"/>
  </g>
  <text class="skill-label-pytorch" x="47" y="26">PyTorch</text>
</svg>
