<svg xmlns="http://www.w3.org/2000/svg" width="156" height="42" viewBox="0 0 156 42" fill="none" role="img" aria-label="SQL Server">
  <defs>
    <linearGradient id="badge-border-sql-server" x1="0" y1="0" x2="156" y2="42" gradientUnits="userSpaceOnUse">
      <stop offset="0%" stop-color="#EF4444" stop-opacity=".72"/>
      <stop offset="50%" stop-color="#E879F9" stop-opacity=".48"/>
      <stop offset="100%" stop-color="#60A5FA" stop-opacity=".72"/>
    </linearGradient>
    <linearGradient id="badge-bg-sql-server" x1="0" y1="0" x2="156" y2="42" gradientUnits="userSpaceOnUse">
      <stop offset="0%" stop-color="#111827"/>
      <stop offset="55%" stop-color="#121826"/>
      <stop offset="100%" stop-color="#0B1020"/>
    </linearGradient>
    <linearGradient id="canvaIconGrad" x1="2" y1="3" x2="22" y2="21" gradientUnits="userSpaceOnUse">
      <stop offset="0%" stop-color="#00C4CC"/>
      <stop offset="55%" stop-color="#7C3AED"/>
      <stop offset="100%" stop-color="#38BDF8"/>
    </linearGradient>
    <filter id="soft-glow-sql-server" x="-12%" y="-35%" width="124%" height="170%">
      <feGaussianBlur stdDeviation="1.8" result="blur"/>
      <feMerge>
        <feMergeNode in="blur"/>
        <feMergeNode in="SourceGraphic"/>
      </feMerge>
    </filter>
    <style>
      .skill-label-sql-server {
        font: 700 14px 'Segoe UI', Inter, Arial, sans-serif;
        fill: #CBD5E1;
        letter-spacing: .05px;
      }
    </style>
  </defs>

  <rect x="2.5" y="3" width="151" height="36" rx="18" fill="url(#badge-bg-sql-server)" stroke="url(#badge-border-sql-server)" stroke-width="1.25" filter="url(#soft-glow-sql-server)"/>
  <g transform="translate(12 9)">
    
<path d="M6 18.2c4.4-2.1 7.8-4.7 10.4-8.4M6.2 5.8c3.9 1.5 7.5 3.5 11 6.2M8.2 4.5c4.2 4.9 6.6 9.8 7.7 14.7" stroke="#EF4444" stroke-width="1.4" fill="none"/>
<path d="M5 19.5c3.8-.8 8.6-.2 14-2.7M5.2 4.9c5.2 1.2 8.9.8 13.6 3.8" stroke="#CBD5E1" stroke-width="1.2" fill="none"/>
<text x="12" y="14.5" text-anchor="middle" font-family="Segoe UI, Arial, sans-serif" font-weight="900" font-size="6.5" fill="#EF4444">SQL</text>
  </g>
  <text class="skill-label-sql-server" x="47" y="26">SQL Server</text>
</svg>
