<svg xmlns="http://www.w3.org/2000/svg" width="150" height="34" viewBox="0 0 150 34" role="img" aria-label="Tailwind CSS">
  <rect x="0.5" y="0.5" width="149" height="33" rx="12" fill="#0f1520" stroke="#58a6ff" stroke-opacity="0.28"/>
  <rect x="6" y="6" width="22" height="22" rx="7" fill="#58a6ff" fill-opacity="0.16" stroke="#58a6ff" stroke-opacity="0.55"/>
  
    <g fill="none" stroke="#58a6ff" stroke-width="1.8" stroke-linecap="round">
      <path d="M10.5 13.2c1.6-2.7 4-3.8 7.2-3.3 2 .3 3.4 1.4 4.2 3.3-1.6 2.7-4 3.8-7.2 3.3-2-.3-3.4-1.4-4.2-3.3z"/>
      <path d="M12.1 19.4c1.3-2.1 3.3-3 5.8-2.6 1.6.2 2.8 1 3.5 2.6-1.3 2.1-3.3 3-5.8 2.6-1.6-.2-2.8-1-3.5-2.6z"/>
    </g>
  <text x="39" y="21.2" fill="#E6EDF3" font-family="Inter, Segoe UI, Arial, sans-serif" font-size="13" font-weight="700">Tailwind CSS</text>
</svg>